<svg xmlns="http://www.w3.org/2000/svg" xmlns:xlink="http://www.w3.org/1999/xlink" width="568" height="584pt" viewBox="0 0 426 584"><g id="graph1" class="graph" transform="scale(1 1) rotate(0) translate(4 580)"><title>G</title><polygon fill="#fff" stroke="#fff" points="-4 5 -4 -580 423 -580 423 5 -4 5"/><g id="graph2" class="cluster"><title>cluster_Global</title><polyline fill="none" stroke="gray" points="200 -8 398 -8"/><path fill="none" stroke="gray" d="M398,-8C404,-8 410,-14 410,-20"/><polyline fill="none" stroke="gray" points="410 -20 410 -556"/><path fill="none" stroke="gray" d="M410,-556C410,-562 404,-568 398,-568"/><polyline fill="none" stroke="gray" points="398 -568 200 -568"/><path fill="none" stroke="gray" d="M200,-568C194,-568 188,-562 188,-556"/><polyline fill="none" stroke="gray" points="188 -556 188 -20"/><path fill="none" stroke="gray" d="M188,-20C188,-14 194,-8 200,-8"/><text x="299" y="-554.1" fill="gray" font-family="Times Roman,serif" font-size="11" text-anchor="middle">Global</text></g><g id="node2" class="node"><title>\\OneLogin_Saml2_Response</title><polygon fill="none" stroke="#000" points="382 -538 216 -538 216 -502 382 -502 382 -538"/><text x="299" y="-517.1" font-family="Times Roman,serif" font-size="11" text-anchor="middle">OneLogin_Saml2_Response</text></g><g id="node3" class="node"><title>\\OneLogin_Saml2_Error</title><polygon fill="none" stroke="#000" points="368 -484 230 -484 230 -448 368 -448 368 -484"/><text x="299" y="-463.1" font-family="Times Roman,serif" font-size="11" text-anchor="middle">OneLogin_Saml2_Error</text></g><g id="node13" class="node"><title>\\Exception</title><ellipse cx="62" cy="-466" fill="none" stroke="#000" rx="62.225" ry="18.385"/><text x="62" y="-462.4" fill="gray" font-family="Times Roman,serif" font-size="14" text-anchor="middle">\Exception</text></g><g id="edge3" class="edge"><title>\\OneLogin_Saml2_Error-&gt;\\Exception</title><path fill="none" stroke="#000" d="M229.813,-466C199.738,-466 164.506,-466 134.11,-466"/><polygon fill="none" stroke="#000" points="134.002 -462.5 124.002 -466 134.002 -469.5 134.002 -462.5"/></g><g id="node4" class="node"><title>\\OneLogin_Saml2_Metadata</title><polygon fill="none" stroke="#000" points="381 -430 217 -430 217 -394 381 -394 381 -430"/><text x="299" y="-409.1" font-family="Times Roman,serif" font-size="11" text-anchor="middle">OneLogin_Saml2_Metadata</text></g><g id="node5" class="node"><title>\\OneLogin_Saml2_LogoutRequest</title><polygon fill="none" stroke="#000" points="395 -376 203 -376 203 -340 395 -340 395 -376"/><text x="299" y="-355.1" font-family="Times Roman,serif" font-size="11" text-anchor="middle">OneLogin_Saml2_LogoutRequest</text></g><g id="node6" class="node"><title>\\OneLogin_Saml2_Constants</title><polygon fill="none" stroke="#000" points="382 -322 216 -322 216 -286 382 -286 382 -322"/><text x="299" y="-301.1" font-family="Times Roman,serif" font-size="11" text-anchor="middle">OneLogin_Saml2_Constants</text></g><g id="node7" class="node"><title>\\OneLogin_Saml2_LogoutResponse</title><polygon fill="none" stroke="#000" points="401 -268 197 -268 197 -232 401 -232 401 -268"/><text x="299" y="-247.1" font-family="Times Roman,serif" font-size="11" text-anchor="middle">OneLogin_Saml2_LogoutResponse</text></g><g id="node8" class="node"><title>\\OneLogin_Saml2_Auth</title><polygon fill="none" stroke="#000" points="367 -214 231 -214 231 -178 367 -178 367 -214"/><text x="299" y="-193.1" font-family="Times Roman,serif" font-size="11" text-anchor="middle">OneLogin_Saml2_Auth</text></g><g id="node9" class="node"><title>\\OneLogin_Saml2_Settings</title><polygon fill="none" stroke="#000" points="377 -160 221 -160 221 -124 377 -124 377 -160"/><text x="299" y="-139.1" font-family="Times Roman,serif" font-size="11" text-anchor="middle">OneLogin_Saml2_Settings</text></g><g id="node10" class="node"><title>\\OneLogin_Saml2_AuthnRequest</title><polygon fill="none" stroke="#000" points="393 -106 205 -106 205 -70 393 -70 393 -106"/><text x="299" y="-85.1" font-family="Times Roman,serif" font-size="11" text-anchor="middle">OneLogin_Saml2_AuthnRequest</text></g><g id="node11" class="node"><title>\\OneLogin_Saml2_Utils</title><polygon fill="none" stroke="#000" points="366 -52 232 -52 232 -16 366 -16 366 -52"/><text x="299" y="-31.1" font-family="Times Roman,serif" font-size="11" text-anchor="middle">OneLogin_Saml2_Utils</text></g></g></svg>