<svg xmlns="http://www.w3.org/2000/svg" xmlns:xlink="http://www.w3.org/1999/xlink" width="760" height="314pt" viewBox="0 0 570 314"><g id="graph1" class="graph" transform="scale(1 1) rotate(0) translate(4 310)"><title>G</title><polygon fill="#fff" stroke="#fff" points="-4 5 -4 -310 567 -310 567 5 -4 5"/><g id="graph2" class="cluster"><title>cluster_Global</title><polyline fill="none" stroke="gray" points="372 -8 542 -8"/><path fill="none" stroke="gray" d="M542,-8C548,-8 554,-14 554,-20"/><polyline fill="none" stroke="gray" points="554 -20 554 -286"/><path fill="none" stroke="gray" d="M554,-286C554,-292 548,-298 542,-298"/><polyline fill="none" stroke="gray" points="542 -298 372 -298"/><path fill="none" stroke="gray" d="M372,-298C366,-298 360,-292 360,-286"/><polyline fill="none" stroke="gray" points="360 -286 360 -20"/><path fill="none" stroke="gray" d="M360,-20C360,-14 366,-8 372,-8"/><text x="457" y="-284.1" fill="gray" font-family="Times Roman,serif" font-size="11" text-anchor="middle">Global</text></g><g id="node2" class="node"><title>\\OneLogin_Saml_Response</title><polygon fill="none" stroke="#000" points="537 -268 377 -268 377 -232 537 -232 537 -268"/><text x="457" y="-247.1" font-family="Times Roman,serif" font-size="11" text-anchor="middle">OneLogin_Saml_Response</text></g><g id="node8" class="node"><title>\\OneLogin_Saml2_Response</title><ellipse cx="148" cy="-250" fill="none" stroke="#000" rx="147.785" ry="18.385"/><text x="148" y="-246.4" fill="gray" font-family="Times Roman,serif" font-size="14" text-anchor="middle">\OneLogin_Saml2_Response</text></g><g id="edge3" class="edge"><title>\\OneLogin_Saml_Response-&gt;\\OneLogin_Saml2_Response</title><path fill="none" stroke="#000" d="M376.621,-250C354.932,-250 330.689,-250 306.32,-250"/><polygon fill="none" stroke="#000" points="306.246 -246.5 296.246 -250 306.246 -253.5 306.246 -246.5"/></g><g id="node3" class="node"><title>\\OneLogin_Saml_Metadata</title><polygon fill="none" stroke="#000" points="537 -214 377 -214 377 -178 537 -178 537 -214"/><text x="457" y="-193.1" font-family="Times Roman,serif" font-size="11" text-anchor="middle">OneLogin_Saml_Metadata</text></g><g id="node4" class="node"><title>\\OneLogin_Saml_AuthRequest</title><polygon fill="none" stroke="#000" points="545 -160 369 -160 369 -124 545 -124 545 -160"/><text x="457" y="-139.1" font-family="Times Roman,serif" font-size="11" text-anchor="middle">OneLogin_Saml_AuthRequest</text></g><g id="node5" class="node"><title>\\OneLogin_Saml_Settings</title><polygon fill="none" stroke="#000" points="533 -106 381 -106 381 -70 533 -70 533 -106"/><text x="457" y="-85.1" font-family="Times Roman,serif" font-size="11" text-anchor="middle">OneLogin_Saml_Settings</text></g><g id="node6" class="node"><title>\\OneLogin_Saml_XmlSec</title><polygon fill="none" stroke="#000" points="531 -52 383 -52 383 -16 531 -16 531 -52"/><text x="457" y="-31.1" font-family="Times Roman,serif" font-size="11" text-anchor="middle">OneLogin_Saml_XmlSec</text></g></g></svg>